<svg width="68" height="48" viewBox="0 0 68 48" fill="none" xmlns="http://www.w3.org/2000/svg">
<path d="M22.8373 25.4844H44.2499C44.5731 25.4844 44.8831 25.356 45.1117 25.1274C45.3402 24.8989 45.4686 24.5889 45.4686 24.2656C45.4686 23.9424 45.3402 23.6324 45.1117 23.4038C44.8831 23.1753 44.5731 23.0469 44.2499 23.0469H22.8373C22.514 23.0469 22.2041 23.1753 21.9755 23.4038C21.7469 23.6324 21.6185 23.9424 21.6185 24.2656C21.6185 24.5889 21.7469 24.8989 21.9755 25.1274C22.2041 25.356 22.514 25.4844 22.8373 25.4844Z" fill="#1C1B18"/>
<path d="M22.8373 22.0312H44.2499C44.5731 22.0312 44.8831 21.9028 45.1117 21.6743C45.3402 21.4457 45.4686 21.1357 45.4686 20.8125C45.4686 20.4893 45.3402 20.1793 45.1117 19.9507C44.8831 19.7222 44.5731 19.5938 44.2499 19.5938H22.8373C22.514 19.5938 22.2041 19.7222 21.9755 19.9507C21.7469 20.1793 21.6185 20.4893 21.6185 20.8125C21.6185 21.1357 21.7469 21.4457 21.9755 21.6743C22.2041 21.9028 22.514 22.0312 22.8373 22.0312Z" fill="#1C1B18"/>
<path d="M48.7985 28.328H56.1735C57.4126 28.328 58.6009 27.8358 59.477 26.9597C60.3532 26.0835 60.8454 24.8952 60.8454 23.6561C60.8454 22.4171 60.3532 21.2288 59.477 20.3526C58.6009 19.4765 57.4126 18.9843 56.1735 18.9843H50.1322C49.8533 18.9751 49.5802 19.0649 49.3612 19.2378C49.1422 19.4106 48.9914 19.6554 48.9356 19.9288L47.6021 26.8066C47.5679 26.9886 47.5731 27.1759 47.6174 27.3557C47.6616 27.5356 47.7439 27.7039 47.8586 27.8493C47.9711 27.9926 48.1134 28.1096 48.2757 28.1923C48.438 28.275 48.6164 28.3213 48.7985 28.328ZM51.1379 21.4218H56.1735C56.7661 21.4218 57.3344 21.6572 57.7535 22.0762C58.1725 22.4952 58.4079 23.0636 58.4079 23.6561C58.4079 24.2487 58.1725 24.8171 57.7535 25.2361C57.3344 25.6551 56.7661 25.8905 56.1735 25.8905H50.2754L51.1379 21.4218Z" fill="#EB2629"/>
<path d="M10.9136 28.3282H18.2885C18.4711 28.3178 18.6493 28.2687 18.8115 28.1842C18.9736 28.0997 19.116 27.9817 19.2291 27.838C19.3423 27.6943 19.4236 27.5283 19.4677 27.3508C19.5118 27.1734 19.5178 26.9886 19.4851 26.8086L18.1516 19.9406C18.0963 19.666 17.9461 19.4196 17.7273 19.2448C17.5084 19.0699 17.235 18.9778 16.955 18.9845H10.9136C9.67458 18.9845 8.48627 19.4767 7.61012 20.3528C6.73397 21.229 6.24176 22.4173 6.24176 23.6563C6.24176 24.8954 6.73397 26.0837 7.61012 26.9599C8.48627 27.836 9.67458 28.3282 10.9136 28.3282ZM10.9136 21.422H15.9493L16.8118 25.8907H10.9136C10.321 25.8907 9.75272 25.6553 9.33369 25.2363C8.91467 24.8173 8.67926 24.2489 8.67926 23.6563C8.67926 23.0638 8.91467 22.4954 9.33369 22.0764C9.75272 21.6574 10.321 21.422 10.9136 21.422Z" fill="#EB2629"/>
<path d="M10.5547 4.19444L6.61692 14.9558C5.32279 15.118 4.13165 15.7448 3.26511 16.7195C2.39858 17.6943 1.91568 18.9507 1.90625 20.2549V30.5483C1.50472 30.6243 1.14255 30.8387 0.882753 31.1542C0.622961 31.4696 0.481992 31.8662 0.484374 32.2748V37.0686C0.495392 37.5469 0.689762 38.0028 1.02731 38.3419C1.36486 38.681 1.81979 38.8774 2.29808 38.8906H2.54386L2.57961 43.9513C2.58339 44.8182 2.93021 45.6483 3.54425 46.2602C4.14514 46.866 4.96071 47.2105 5.81397 47.2188H5.83855L11.3026 47.1375C11.7268 47.1352 12.1465 47.0493 12.5375 46.8848C12.9285 46.7203 13.2833 46.4803 13.5816 46.1786C13.8799 45.877 14.1158 45.5195 14.2759 45.1266C14.436 44.7337 14.5171 44.3132 14.5146 43.8889L14.4797 38.8906H53.4931L53.529 43.9513C53.5327 44.8182 53.8795 45.6484 54.4937 46.2602C55.0945 46.866 55.91 47.2104 56.7632 47.2188H56.788L62.252 47.1375C62.6785 47.1314 63.0996 47.0411 63.4911 46.8717C63.8825 46.7024 64.2367 46.4574 64.5331 46.1507C64.832 45.8531 65.0683 45.4987 65.2282 45.1084C65.3881 44.7181 65.4683 44.2997 65.4641 43.878L65.4289 38.8906H65.7019C66.1802 38.8774 66.6352 38.6809 66.9728 38.3418C67.3103 38.0026 67.5047 37.5468 67.5156 37.0684V32.2746C67.518 31.866 67.377 31.4694 67.1172 31.154C66.8575 30.8385 66.4953 30.6241 66.0938 30.5481V20.2549C66.0836 18.9532 65.5999 17.6997 64.733 16.7285C63.8661 15.7574 62.6753 15.1351 61.3831 14.9779L57.4642 4.19423C57.0719 3.1199 56.3613 2.19073 55.4272 1.53068C54.4932 0.870627 53.38 0.511081 52.2364 0.5H15.7634C14.6221 0.511448 13.5116 0.871443 12.5807 1.53175C11.6497 2.19205 10.9428 3.12111 10.5547 4.19444ZM11.286 44.7179L5.82189 44.7819H5.81783C5.60216 44.7661 5.4008 44.6681 5.25537 44.508C5.18073 44.4368 5.12121 44.3512 5.08034 44.2564C5.03948 44.1616 5.01811 44.0596 5.01752 43.9564L4.98156 38.8906H12.0422L12.0777 43.8853C12.0801 44.0998 11.9987 44.3068 11.8508 44.4622C11.7028 44.6175 11.5001 44.7091 11.2857 44.7173L11.286 44.7179ZM62.797 44.4359C62.6521 44.5966 62.4503 44.6945 62.2344 44.7089L56.7703 44.7812H56.764C56.5491 44.7651 56.3485 44.667 56.2038 44.5072C56.1291 44.436 56.0695 44.3505 56.0286 44.2557C55.9878 44.161 55.9664 44.0589 55.9659 43.9557L55.9308 38.8906H62.9912L63.0266 43.8855C63.0277 43.988 63.008 44.0897 62.9685 44.1843C62.929 44.279 62.8707 44.3646 62.797 44.4359ZM65.0781 33V36.4531H2.92187V33H65.0781ZM21.7371 30.5625L22.8212 28.9375H44.1219L45.206 30.5625H21.7371ZM63.6562 20.2549V30.5625H48.21L45.7347 27.0665C45.6248 26.902 45.4783 26.7653 45.3066 26.667C45.1349 26.5687 44.9428 26.5115 44.7453 26.5H22.1972C21.9998 26.5116 21.8078 26.5688 21.6362 26.6671C21.4646 26.7654 21.3181 26.9021 21.2082 27.0665L18.7331 30.5625H4.34375V20.2549C4.36135 19.482 4.68038 18.7465 5.23275 18.2055C5.78512 17.6645 6.52707 17.3609 7.30023 17.3594H60.6998C61.4729 17.3609 62.2149 17.6645 62.7673 18.2055C63.3196 18.7465 63.6387 19.482 63.6562 20.2549ZM55.154 5.01831L58.7368 14.9219H9.26323L12.8457 5.01851C13.0626 4.41598 13.4581 3.89393 13.9794 3.52208C14.5008 3.15024 15.1231 2.9463 15.7634 2.9375H52.2364C52.8766 2.94631 53.499 3.15023 54.0203 3.52204C54.5417 3.89384 54.9372 4.41583 55.154 5.01831Z" fill="#1C1B18"/>
</svg>
