<svg width="53" height="12" viewBox="0 0 53 12" fill="none" xmlns="http://www.w3.org/2000/svg">
<path fill-rule="evenodd" clip-rule="evenodd" d="M50.2129 8.07471C50.5537 7.29199 50.5137 6.58447 50.0928 5.9541C51.0732 5.30176 51.7373 4.57275 52.0869 3.76807C52.3438 3.18164 52.3945 2.62598 52.2412 2.10449C52.0391 1.39697 51.5176 0.859375 50.6797 0.489258C49.9307 0.163574 49.0078 0 47.9111 0H40.5791L36.791 3.05078H46.9414C47.2461 3.05078 47.5098 3.09424 47.7324 3.18164C48.0391 3.30078 48.1377 3.48584 48.0283 3.73584C47.9199 3.98633 47.6582 4.17627 47.2432 4.30713C46.9443 4.39404 46.6426 4.4375 46.3389 4.4375H36.1885L33 11.7612H42.792C43.8789 11.7612 44.9355 11.6035 45.9629 11.2881C47.1289 10.9297 48.1201 10.4019 48.9326 9.70605C49.5352 9.19482 49.9619 8.65137 50.2129 8.07471ZM38.5098 7.4873H45.0107C45.3906 7.4873 45.7324 7.52441 46.0361 7.60107C46.4883 7.70996 46.665 7.87891 46.5654 8.10693C46.5127 8.22998 46.3936 8.33594 46.21 8.42432C46.0527 8.49951 45.8477 8.5625 45.5957 8.61279C45.2266 8.68896 44.8516 8.72705 44.4707 8.72705H37.9697L38.5098 7.4873Z" fill="#1C1B18"/>
<path fill-rule="evenodd" clip-rule="evenodd" d="M23.1162 8.74414L19.5869 11.7949L33.3887 11.7954L30.5908 1.33838C30.498 0.980469 30.3047 0.675293 30.0107 0.425293C29.6777 0.14209 29.2891 0.000488281 28.8428 0.000488281C28.7891 0.000488281 28.7344 0.00341797 28.6768 0.0078125V0H19.1514L13.832 3.05078H23.9365L22.2148 4.54199H12.7832L7.46484 7.59277H18.6914L17.3965 8.71338H6.41406L0 11.7954H13.835H18.3486L26.8115 4.51953L28.0195 8.74414H23.1162Z" fill="#EB2629"/>
</svg>
