<svg width="31" height="23" viewBox="0 0 31 23" fill="none" xmlns="http://www.w3.org/2000/svg">
<path d="M10.8957 22.7382L0.440622 12.3418C0.380326 12.2818 0.332477 12.2105 0.299826 12.132C0.267175 12.0535 0.250366 11.9693 0.250366 11.8843C0.250366 11.7993 0.267175 11.7151 0.299826 11.6366C0.332477 11.558 0.380326 11.4868 0.440622 11.4268L3.08005 8.78444C3.33226 8.53223 3.7399 8.53223 3.99211 8.78444L10.8751 15.6264C11.1274 15.8786 11.5379 15.8757 11.7901 15.6235L26.9991 0.267898C27.2513 0.012754 27.6619 0.012754 27.917 0.264966L30.5594 2.90732C30.8116 3.15953 30.8116 3.56718 30.5623 3.81939L13.9926 20.5387L13.9955 20.5416L11.8107 22.7382C11.5585 22.9904 11.1479 22.9904 10.8957 22.7382Z" fill="#EB2629"/>
</svg>
