<svg width="91" height="67" viewBox="0 0 91 67" fill="none" xmlns="http://www.w3.org/2000/svg">
<path d="M77.5634 17.2883H58.7734V51.3442H89.5592V36.0157L85.9688 23.6066C84.8865 19.8646 81.459 17.2883 77.5634 17.2883Z" fill="#EB2629"/>
<path d="M85.0646 35.8584L81.8647 24.7971C81.3131 22.8957 79.5444 21.5649 77.5634 21.5649H63.0501V35.8584H85.0646Z" fill="white"/>
<path d="M85.0646 35.8584L81.8647 24.7971C81.3131 22.8957 79.5444 21.5649 77.5634 21.5649H63.0501L85.0646 35.8584Z" fill="#F2F2F2"/>
<path d="M5.68702 1.19092H53.0864C55.6736 1.19092 57.7734 3.28926 57.7734 5.87794V50.3419H1V5.87794C1 3.28919 3.09814 1.19092 5.68702 1.19092Z" fill="white" stroke="#1C1B18" stroke-width="2"/>
<path d="M91 51.3401V57.7664H0.00765991V51.3401H9.50499C11.7229 47.3592 15.9882 44.6672 20.879 44.6672C25.7509 44.6672 30.0161 47.3592 32.2531 51.3401H62.8114C65.0293 47.3592 69.2738 44.6672 74.1647 44.6672C79.0555 44.6672 83.3017 47.3592 85.5387 51.3401H91Z" fill="#1C1B18"/>
<path d="M83.2466 57.7267C83.2466 62.7427 79.1804 66.8089 74.1644 66.8089C69.1485 66.8089 65.086 62.7427 65.086 57.7267C65.086 52.7108 69.1503 48.6445 74.1644 48.6445C79.1824 48.6445 83.2466 52.7108 83.2466 57.7267Z" fill="#40596B"/>
<path d="M77.8155 57.7267C77.8155 59.7419 76.1813 61.374 74.1681 61.374C72.153 61.374 70.5171 59.7419 70.5171 57.7267C70.5171 55.7115 72.1512 54.0793 74.1681 54.0793C76.1813 54.0776 77.8155 55.7117 77.8155 57.7267Z" fill="white"/>
<path d="M29.9536 57.7267C29.9536 62.7427 25.8854 66.8089 20.8714 66.8089C15.8555 66.8089 11.7892 62.7427 11.7892 57.7267C11.7892 52.7108 15.8555 48.6445 20.8714 48.6445C25.8854 48.6445 29.9536 52.7108 29.9536 57.7267Z" fill="#40596B"/>
<path d="M24.5187 57.7267C24.5187 59.7418 22.8865 61.374 20.8714 61.374C18.8562 61.374 17.2223 59.7418 17.2223 57.7267C17.2223 55.7115 18.8564 54.0793 20.8714 54.0793C22.8864 54.0793 24.5187 55.7117 24.5187 57.7267Z" fill="white"/>
</svg>
