<svg width="92" height="52" viewBox="0 0 92 52" fill="none" xmlns="http://www.w3.org/2000/svg">
<path d="M82.6337 18.6095L82.6345 18.6096C85.8944 19.1964 88.2671 22.0394 88.2688 25.354V38.9677H3.82892V3.04574C3.82892 1.9655 4.70324 1.09229 5.78238 1.09229H52.2108C53.8794 1.09229 55.4906 1.7024 56.7445 2.80383C56.7446 2.80396 56.7448 2.8041 56.7449 2.80423L72.4043 16.6123L72.6133 16.7966L72.8876 16.8462L82.6337 18.6095Z" fill="white" stroke="black" stroke-width="2"/>
<path d="M8.4671 14.8504V5.73584H35.6555V14.8504H8.4671Z" fill="white" stroke="black" stroke-width="2"/>
<path d="M53.681 6.28499L63.3871 14.8504H42.2956V5.73584H52.2051C52.7487 5.73584 53.2751 5.92962 53.6799 6.28398C53.6802 6.28432 53.6806 6.28465 53.681 6.28499Z" fill="white" stroke="black" stroke-width="2"/>
<path d="M89.1671 38.8767H2.82894C1.26695 38.8767 0 40.1456 0 41.7056C0 43.2658 1.26695 44.5366 2.82894 44.5366H89.1691C90.7311 44.5366 92 43.2678 92 41.7056C92 40.1437 90.7311 38.8767 89.1671 38.8767Z" fill="#1C1B18"/>
<path d="M83.9041 42.9228C83.9041 37.9587 79.8812 33.9377 74.919 33.9377C69.9569 33.9377 65.934 37.9589 65.934 42.9228C65.934 47.8868 69.9589 51.9079 74.919 51.9079C79.8792 51.9079 83.9041 47.8868 83.9041 42.9228Z" fill="#40596B"/>
<path d="M79.6473 42.9227C79.6473 40.3142 77.5313 38.1943 74.9209 38.1943C72.3104 38.1943 70.1945 40.3123 70.1945 42.9227C70.1945 45.5332 72.3104 47.6511 74.9209 47.6511C77.5294 47.6509 79.6473 45.5312 79.6473 42.9227Z" fill="white"/>
<path d="M25.5257 42.9228C25.5257 37.9587 21.5028 33.9377 16.5407 33.9377C11.5785 33.9377 7.55557 37.9589 7.55557 42.9228C7.55557 47.8868 11.5785 51.9079 16.5407 51.9079C21.5046 51.9079 25.5257 47.8868 25.5257 42.9228Z" fill="#40596B"/>
<path d="M21.2688 42.9227C21.2688 40.3142 19.1528 38.1943 16.5404 38.1943C13.9319 38.1943 11.814 40.3123 11.814 42.9227C11.814 45.5332 13.9299 47.6511 16.5404 47.6511C19.1508 47.6511 21.2688 45.5312 21.2688 42.9227Z" fill="white"/>
<path d="M90.5836 26.4783H85.9339V34.7141H90.5836V26.4783Z" fill="#EB2629"/>
<path d="M6.16188 26.4783H1.51221V34.7141H6.16188V26.4783Z" fill="#EB2629"/>
<path d="M46.0508 20.7282H43.4806C42.2731 20.7282 41.2937 19.7469 41.2937 18.5413H48.2375C48.2395 19.7468 47.2582 20.7282 46.0508 20.7282Z" fill="#40596B"/>
</svg>
