<?xml version="1.0" standalone="no"?>
<!DOCTYPE svg PUBLIC "-//W3C//DTD SVG 20010904//EN"
 "http://www.w3.org/TR/2001/REC-SVG-20010904/DTD/svg10.dtd">
<svg version="1.0" xmlns="http://www.w3.org/2000/svg"
 width="3392.000000pt" height="3392.000000pt" viewBox="0 0 3392.000000 3392.000000"
 preserveAspectRatio="xMidYMid meet">
<metadata>
Created by potrace 1.14, written by Peter Selinger 2001-2017
</metadata>
<g transform="translate(0.000000,3392.000000) scale(0.100000,-0.100000)"
fill="#000000" stroke="none">
<path d="M12233 20788 c-13 -6 -23 -15 -23 -20 0 -4 -9 -8 -19 -8 -11 0 -26
-6 -33 -13 -7 -7 -49 -33 -92 -58 -43 -24 -91 -51 -105 -59 -14 -8 -89 -51
-166 -95 -77 -44 -143 -84 -147 -90 -4 -5 -8 -6 -8 -2 0 4 -17 -4 -37 -18 -21
-14 -43 -25 -50 -25 -7 0 -13 -4 -13 -9 0 -5 -8 -11 -17 -14 -18 -6 -64 -32
-156 -88 -26 -16 -50 -29 -53 -29 -3 0 -28 -15 -57 -33 -29 -18 -65 -40 -82
-49 -16 -8 -73 -40 -125 -70 -52 -30 -115 -66 -140 -80 -25 -14 -101 -58 -168
-97 -68 -39 -128 -71 -133 -71 -5 0 -9 -4 -9 -10 0 -5 -11 -12 -25 -16 -14 -3
-25 -10 -25 -15 0 -5 -5 -9 -10 -9 -9 0 -207 -113 -585 -332 -27 -16 -58 -32
-67 -35 -10 -3 -18 -10 -18 -15 0 -5 -4 -7 -9 -3 -5 3 -12 1 -15 -4 -4 -5 -46
-31 -94 -57 -48 -26 -88 -51 -90 -56 -2 -4 -8 -8 -14 -8 -5 0 -22 -9 -36 -19
-15 -10 -30 -19 -35 -20 -4 0 -17 -7 -30 -15 -61 -38 -149 -86 -158 -86 -5 0
-9 -3 -9 -8 0 -4 -15 -13 -32 -21 -18 -8 -35 -17 -38 -21 -3 -3 -45 -29 -94
-56 -110 -60 -140 -77 -236 -134 -41 -24 -86 -50 -100 -57 -22 -11 -23 -13 -5
-14 11 0 1466 -1 3234 -1 2756 -1 3212 -3 3195 -15 -10 -7 -35 -28 -55 -46
-20 -18 -62 -54 -94 -82 -32 -27 -66 -57 -75 -65 -9 -8 -45 -40 -81 -70 -35
-30 -77 -67 -94 -83 -16 -15 -42 -35 -57 -45 -16 -9 -28 -22 -28 -29 0 -7 -5
-13 -10 -13 -6 0 -21 -9 -33 -20 -50 -46 -105 -94 -146 -128 -25 -21 -54 -46
-66 -57 -11 -11 -34 -31 -51 -45 -35 -29 -174 -151 -190 -165 -6 -5 -32 -28
-58 -50 l-48 -40 -3024 -1 c-2638 -1 -3026 -2 -3041 -15 -10 -8 -31 -21 -48
-29 -16 -8 -32 -18 -35 -21 -3 -3 -41 -25 -85 -49 -44 -24 -89 -48 -100 -54
-11 -6 -22 -13 -25 -16 -5 -5 -19 -13 -99 -58 -25 -14 -62 -35 -81 -47 -19
-12 -42 -25 -50 -29 -8 -4 -24 -12 -35 -19 -19 -12 -139 -81 -200 -115 -16 -9
-57 -34 -92 -54 -35 -21 -65 -38 -68 -38 -3 0 -34 -18 -70 -40 -36 -22 -68
-40 -71 -40 -3 0 -26 -13 -51 -30 -24 -16 -46 -30 -48 -30 -3 0 -90 -49 -195
-110 -105 -60 -194 -110 -197 -110 -4 0 -14 -6 -22 -14 -9 -7 -41 -27 -71 -43
-64 -35 -111 -61 -235 -133 -49 -29 -115 -66 -145 -83 -30 -17 -57 -34 -58
-39 -2 -4 -7 -6 -12 -3 -4 3 -13 -2 -20 -10 -7 -8 -16 -15 -19 -15 -4 0 -61
-31 -127 -69 -65 -37 -135 -77 -154 -87 -19 -11 -36 -22 -38 -26 -2 -5 -7 -8
-12 -8 -4 0 -91 -48 -192 -106 -100 -58 -208 -120 -238 -136 -30 -17 -67 -39
-81 -49 -14 -10 -29 -16 -33 -12 -3 3 -6 2 -6 -4 0 -6 -8 -13 -17 -16 -10 -4
-40 -20 -68 -37 -27 -17 -57 -33 -65 -37 -8 -4 -17 -9 -20 -12 -3 -4 -30 -19
-60 -35 -87 -46 -93 -50 -109 -64 -12 -12 -10 -14 15 -12 16 1 1630 2 3587 1
l3557 -1 -42 -37 c-24 -21 -48 -42 -54 -48 -6 -5 -37 -32 -69 -60 -79 -67
-227 -196 -241 -209 -6 -6 -33 -29 -59 -51 -27 -22 -60 -50 -73 -63 -14 -12
-46 -40 -71 -61 -72 -62 -92 -79 -155 -134 l-59 -52 -3516 -1 -3516 0 -99 -47
c-54 -26 -102 -47 -107 -47 -5 0 -9 -4 -9 -10 0 -5 -5 -10 -10 -10 -15 0 -104
-42 -111 -53 -3 -5 -9 -8 -13 -8 -9 2 -57 -20 -221 -100 -82 -40 -152 -74
-155 -74 -3 -1 -58 -27 -122 -58 -64 -31 -122 -57 -127 -57 -6 0 -11 -4 -11
-10 0 -5 -5 -10 -11 -10 -6 0 -54 -21 -107 -47 -168 -80 -372 -178 -517 -248
-77 -36 -179 -86 -228 -110 -48 -25 -88 -44 -90 -44 -1 0 -78 -36 -170 -80
-93 -45 -171 -81 -174 -81 -3 0 -17 -9 -31 -19 -15 -10 -30 -19 -34 -20 -12
-2 -133 -58 -251 -117 -59 -29 -111 -54 -115 -55 -31 -10 -199 -95 -204 -103
-4 -6 -8 -8 -8 -3 0 4 -10 1 -22 -7 -13 -8 -26 -15 -30 -16 -4 0 -59 -25 -121
-55 -63 -30 -119 -55 -125 -55 -6 0 -12 -3 -14 -7 -1 -5 -19 -16 -38 -25 -19
-9 -87 -41 -150 -71 -63 -30 -173 -83 -245 -118 -72 -35 -132 -64 -135 -64 -3
-1 -70 -33 -150 -72 l-145 -71 5868 0 5868 -1 92 77 c91 76 136 115 186 161
14 13 46 40 70 60 25 20 54 45 66 56 12 11 44 38 70 60 26 22 52 45 59 50 6 6
74 64 151 130 162 139 189 163 219 190 12 12 45 39 72 60 27 22 54 45 59 51 8
9 80 71 178 154 10 8 29 24 41 35 12 11 44 38 70 60 26 22 58 49 70 60 12 11
44 39 72 62 27 23 63 53 79 68 17 14 50 43 75 63 25 20 52 44 60 53 8 9 44 40
80 70 36 30 74 62 84 72 11 9 24 17 28 17 5 0 6 5 3 10 -3 6 0 10 9 10 8 0 16
3 18 8 2 4 50 47 108 96 58 49 114 98 125 108 25 22 91 80 107 93 21 17 223
190 228 195 7 7 127 110 164 141 16 13 42 36 58 52 16 15 31 27 33 27 3 0 13
8 23 18 10 9 44 40 76 67 101 86 140 119 156 135 9 8 38 33 65 54 28 22 65 55
83 72 17 18 32 31 32 29 0 -3 8 3 18 13 16 15 62 55 152 132 14 12 36 31 50
43 14 12 55 47 90 77 36 30 70 60 76 65 6 6 33 29 61 52 27 24 61 53 75 65 14
13 44 39 67 58 23 19 52 44 65 55 12 11 46 40 75 65 29 25 62 54 75 65 12 11
43 37 68 58 26 22 64 55 85 74 21 19 54 47 73 61 19 15 52 44 73 64 21 21 44
41 52 45 7 5 31 24 52 43 21 19 96 85 167 145 71 61 168 144 216 185 77 67
171 148 220 190 88 75 124 105 134 114 6 6 43 38 81 70 39 33 80 71 93 84 12
14 22 21 22 16 0 -5 4 -4 8 1 4 6 26 27 50 48 40 35 64 47 61 30 -1 -5 0 -10
1 -13 1 -3 3 -14 5 -25 4 -21 34 -130 43 -155 6 -19 9 -30 16 -55 2 -11 18
-65 34 -120 16 -55 33 -113 37 -130 12 -42 12 -44 15 -50 3 -6 3 -6 14 -55 5
-19 11 -39 14 -45 4 -5 7 -14 7 -20 0 -5 8 -35 17 -65 34 -107 58 -197 58
-214 0 -9 4 -16 8 -16 4 0 9 -11 10 -26 1 -14 6 -34 12 -44 5 -10 10 -28 10
-39 0 -12 4 -29 9 -39 9 -16 78 -254 87 -298 2 -12 10 -40 18 -63 9 -22 13
-41 11 -41 -2 0 5 -24 16 -52 10 -29 19 -61 19 -70 0 -10 4 -26 9 -36 8 -13
33 -99 36 -122 1 -3 9 -32 19 -65 10 -33 20 -67 22 -75 2 -8 31 -109 64 -225
34 -115 64 -221 66 -234 3 -14 7 -28 10 -33 3 -4 7 -18 10 -30 7 -29 10 -40
17 -58 11 -26 39 -134 40 -155 2 -20 -4 -20 -1563 -20 l-1565 0 -38 -35 c-21
-19 -48 -40 -60 -47 -12 -7 -18 -12 -13 -13 6 0 -3 -10 -20 -22 -16 -13 -40
-32 -53 -43 -12 -11 -32 -28 -44 -38 -95 -81 -144 -124 -207 -180 -14 -12 -52
-44 -84 -72 -33 -27 -64 -54 -70 -60 -6 -5 -43 -37 -81 -70 -78 -66 -104 -89
-153 -134 -18 -17 -35 -31 -39 -31 -3 0 -13 -8 -22 -17 -14 -15 -87 -80 -181
-159 -77 -66 -136 -118 -145 -128 -5 -7 -19 -18 -31 -26 -23 -17 -117 -96
-176 -150 -21 -19 -44 -39 -51 -45 -16 -13 -94 -80 -127 -110 -14 -12 -47 -41
-75 -65 -27 -23 -79 -68 -114 -99 -35 -31 -72 -62 -82 -69 -10 -7 -31 -25 -47
-40 -15 -15 -52 -47 -81 -72 -29 -25 -65 -56 -81 -70 -15 -14 -50 -44 -76 -66
-27 -23 -62 -53 -78 -67 l-29 -26 4416 0 c2719 0 4415 4 4412 10 -4 5 -3 9 2
10 7 1 6287 8 6343 8 32 -1 34 -1 100 5 30 3 91 8 135 11 44 3 98 8 120 10 22
3 63 7 90 10 50 6 114 13 170 20 17 2 30 4 30 5 0 1 11 3 25 5 66 7 126 16
140 20 8 2 31 6 50 9 47 8 89 15 125 23 17 3 39 7 50 9 11 2 27 5 35 7 39 9
77 17 100 21 14 2 90 20 169 40 79 20 151 38 160 40 9 2 23 6 31 9 8 4 47 15
85 26 39 11 122 36 185 57 63 21 120 38 125 40 6 1 35 12 65 24 30 12 75 29
100 37 25 8 63 23 85 32 22 10 60 26 85 35 25 10 62 27 82 38 21 10 39 19 40
18 12 -4 429 200 448 220 3 3 30 18 60 34 30 16 62 35 71 42 8 8 19 14 24 14
4 0 23 11 41 25 18 14 35 25 38 25 18 0 411 280 441 314 6 6 33 29 60 50 57
46 71 58 179 158 89 83 210 206 252 258 16 19 36 41 44 50 8 9 26 31 40 49 14
18 30 38 35 44 31 37 95 128 95 136 0 5 3 11 8 13 9 4 52 65 52 74 0 3 9 19
20 34 31 44 129 238 122 244 -3 3 0 6 6 6 7 0 12 9 12 19 0 11 4 22 9 25 5 3
12 17 15 30 3 14 11 38 18 53 18 46 65 209 73 258 3 17 8 41 10 55 21 104 21
336 0 430 -4 14 -8 34 -10 45 -19 107 -106 322 -163 402 -34 49 -32 56 27 92
31 19 60 41 64 48 4 7 15 13 22 13 8 0 15 3 15 8 0 4 17 18 38 32 20 13 53 37
72 53 19 15 40 32 47 37 7 6 17 10 23 10 5 0 10 4 10 8 0 5 29 32 65 61 154
123 386 355 487 486 33 43 51 65 65 80 43 45 195 292 253 410 61 125 115 252
125 295 2 8 8 27 14 43 6 15 8 27 5 27 -4 0 -2 6 3 13 6 6 14 30 18 52 5 22 9
42 10 45 1 3 5 28 10 55 4 28 10 59 12 70 9 34 11 337 3 369 -4 17 -13 63 -20
101 -21 117 -108 353 -145 395 -8 8 -14 18 -15 22 -2 14 -35 71 -57 98 -13 15
-23 30 -23 33 0 6 -33 46 -67 84 -13 13 -23 26 -23 28 0 4 -72 76 -127 126
-21 20 -68 58 -104 85 -35 26 -66 51 -69 54 -20 22 -383 223 -398 220 -1 0
-19 7 -40 16 -45 19 -251 94 -272 99 -8 1 -62 16 -120 33 -114 33 -164 45
-196 47 -11 1 -26 5 -33 9 -6 4 -28 9 -49 12 -20 2 -48 7 -62 10 -14 3 -34 7
-45 9 -133 22 -169 27 -202 30 -21 3 -83 9 -138 15 -55 6 -129 14 -165 17 -36
3 -1207 8 -2603 10 l-2539 4 -32 -28 c-37 -31 -34 -29 -171 -138 -112 -90
-129 -104 -155 -125 -10 -8 -34 -28 -55 -45 -20 -16 -54 -43 -74 -60 -21 -16
-55 -43 -76 -60 -21 -16 -46 -37 -55 -45 -9 -8 -36 -31 -61 -50 -25 -19 -63
-49 -85 -67 -61 -50 -216 -175 -258 -208 -22 -16 -44 -34 -50 -40 -10 -9 -140
-114 -176 -142 -8 -6 -55 -45 -105 -85 -49 -41 -120 -97 -157 -125 -37 -28
-64 -54 -61 -57 4 -3 1 -6 -7 -6 -7 0 -27 -12 -44 -27 -17 -16 -49 -41 -70
-58 -21 -16 -44 -35 -50 -40 -6 -6 -42 -35 -81 -65 -38 -30 -76 -60 -83 -68
-8 -7 -30 -25 -50 -40 -21 -15 -39 -29 -42 -32 -4 -5 -47 -40 -123 -100 -11
-8 -24 -20 -31 -25 -6 -6 -69 -56 -139 -113 -71 -56 -125 -102 -120 -103 4 0
1504 -2 3333 -3 1829 -2 3339 -6 3355 -9 17 -3 48 -8 70 -11 36 -5 143 -30
170 -40 28 -10 60 -19 60 -17 0 2 24 -11 53 -28 29 -17 56 -31 59 -31 4 0 26
-21 49 -46 43 -46 65 -104 59 -158 -6 -50 -38 -129 -70 -174 -16 -23 -109
-116 -131 -132 -71 -52 -226 -128 -294 -146 -8 -2 -45 -12 -82 -22 -38 -11
-68 -18 -68 -15 0 2 -8 0 -17 -6 -10 -5 -38 -12 -63 -15 -25 -3 -54 -8 -65
-10 -54 -10 -129 -18 -219 -22 -54 -2 -101 -6 -104 -8 -2 -3 -13 -1 -23 4 -12
7 -20 7 -24 0 -5 -7 -11 -8 -19 -1 -6 5 -17 6 -25 2 -7 -4 -30 -5 -52 -1 -22
4 -42 4 -45 -1 -2 -4 -15 -5 -27 0 -12 4 -33 5 -47 1 -14 -4 -37 -3 -52 1 -15
4 -30 4 -33 0 -2 -4 -25 -5 -49 -1 -25 4 -49 3 -55 -3 -5 -5 -11 -5 -15 2 -5
7 -13 8 -25 2 -9 -5 -23 -6 -30 -2 -7 5 -27 5 -44 2 -18 -4 -51 -4 -75 -1 -23
4 -45 3 -48 -2 -3 -5 -11 -5 -18 1 -6 5 -17 6 -25 2 -7 -4 -30 -5 -52 -1 -22
4 -42 3 -45 -1 -3 -5 -12 -6 -21 0 -9 4 -31 5 -49 1 -19 -4 -34 -4 -34 0 0 4
-15 4 -32 1 -18 -4 -52 -4 -75 -1 -23 4 -46 3 -52 -3 -5 -5 -11 -5 -15 2 -5 7
-13 8 -25 2 -9 -5 -23 -6 -30 -2 -7 5 -27 5 -44 2 -18 -4 -51 -4 -75 -1 -23 4
-45 3 -48 -2 -3 -5 -11 -5 -18 1 -6 5 -17 6 -25 2 -7 -4 -30 -5 -52 -1 -22 4
-42 4 -45 -1 -2 -4 -15 -5 -27 0 -12 4 -33 5 -47 1 -14 -4 -37 -3 -52 1 -15 4
-30 4 -33 0 -2 -4 -25 -5 -49 -1 -25 4 -49 3 -55 -3 -5 -5 -11 -5 -15 2 -5 7
-13 8 -25 2 -9 -5 -23 -6 -30 -2 -7 5 -27 5 -44 2 -18 -4 -51 -4 -75 -1 -23 4
-45 3 -48 -2 -3 -5 -11 -5 -18 1 -6 5 -17 6 -25 2 -7 -4 -30 -5 -52 -1 -22 4
-42 3 -45 -1 -3 -5 -12 -6 -21 0 -9 4 -31 5 -49 1 -19 -4 -34 -4 -34 0 0 4
-15 4 -32 1 -18 -4 -52 -4 -75 -1 -23 4 -46 3 -52 -3 -5 -5 -11 -5 -15 2 -5 7
-13 8 -25 2 -9 -5 -23 -6 -30 -2 -7 5 -27 5 -44 2 -18 -4 -51 -4 -75 -1 -23 4
-45 3 -48 -2 -3 -5 -11 -5 -18 1 -6 5 -17 6 -25 2 -7 -4 -30 -5 -52 -1 -22 4
-42 4 -45 -1 -2 -4 -15 -5 -27 0 -12 4 -33 5 -47 1 -14 -4 -37 -3 -52 1 -15 4
-30 4 -33 0 -2 -4 -25 -5 -49 -1 -25 4 -49 3 -55 -3 -5 -5 -11 -5 -15 2 -5 7
-13 8 -25 2 -9 -5 -23 -6 -30 -2 -7 5 -27 5 -44 2 -18 -4 -51 -4 -75 -1 -23 4
-45 3 -48 -2 -3 -5 -11 -5 -18 1 -6 5 -17 6 -25 2 -7 -4 -30 -5 -52 -1 -22 4
-42 3 -45 -1 -3 -5 -12 -6 -21 0 -9 4 -31 5 -49 1 -19 -4 -34 -4 -34 0 0 4
-15 4 -32 1 -18 -4 -52 -4 -75 -1 -23 4 -46 3 -52 -3 -5 -5 -11 -5 -15 2 -5 7
-13 8 -25 2 -9 -5 -23 -6 -30 -2 -7 5 -27 5 -44 2 -18 -4 -51 -4 -75 -1 -23 4
-45 3 -48 -2 -3 -5 -11 -5 -18 1 -6 5 -17 6 -25 2 -7 -4 -30 -5 -52 -1 -22 4
-41 4 -44 0 -4 -7 -74 -4 -82 4 -3 3 -15 1 -27 -3 -11 -5 -30 -5 -41 -1 -11 4
-29 4 -40 0 -11 -4 -29 -4 -40 0 -11 4 -29 4 -41 0 -11 -5 -27 -5 -34 0 -7 5
-23 5 -35 0 -12 -5 -28 -5 -35 0 -7 4 -25 4 -40 0 -15 -4 -33 -4 -40 0 -7 4
-25 4 -40 0 -15 -4 -33 -4 -40 0 -7 4 -23 5 -36 1 -14 -3 -56 -4 -95 -1 -38 3
-74 1 -78 -3 -5 -5 -12 -4 -15 2 -5 7 -13 8 -25 2 -9 -5 -23 -6 -30 -2 -7 5
-27 5 -44 2 -18 -4 -51 -4 -75 -1 -23 4 -45 3 -48 -2 -3 -5 -11 -5 -18 1 -6 5
-17 6 -25 2 -7 -4 -30 -5 -52 -1 -22 4 -41 4 -44 0 -2 -4 -25 -4 -49 0 -25 4
-49 3 -55 -3 -5 -5 -11 -5 -15 2 -5 7 -13 8 -25 2 -9 -5 -23 -6 -30 -2 -7 5
-27 5 -44 2 -18 -4 -51 -4 -75 -1 -23 4 -45 3 -48 -2 -3 -5 -11 -5 -18 1 -6 5
-17 6 -25 2 -7 -4 -30 -5 -52 -1 -22 4 -41 4 -44 0 -2 -4 -25 -4 -49 0 -25 4
-49 3 -55 -3 -5 -5 -11 -5 -15 2 -5 7 -13 8 -25 2 -9 -5 -23 -6 -30 -2 -7 5
-27 5 -44 2 -18 -4 -50 -4 -73 -1 -22 4 -49 3 -60 0 -10 -4 -28 -4 -39 0 -11
4 -29 4 -40 0 -11 -4 -29 -4 -40 0 -11 4 -29 4 -40 0 -11 -4 -29 -4 -40 0 -11
4 -31 4 -45 0 -14 -4 -34 -3 -46 1 -11 4 -27 4 -34 -1 -7 -5 -23 -5 -34 0 -12
4 -30 4 -41 0 -11 -4 -28 -4 -39 -1 -10 4 -31 5 -47 3 -28 -4 -36 -16 -74
-107 -7 -16 -24 -56 -39 -87 -14 -32 -28 -69 -32 -83 -3 -14 -10 -25 -15 -25
-5 0 -9 -6 -9 -14 0 -13 -12 -41 -81 -191 -13 -27 -24 -53 -25 -57 -1 -5 -3
-10 -4 -13 -1 -3 -3 -8 -5 -12 -2 -8 -16 -41 -62 -143 -13 -30 -31 -71 -40
-90 -8 -19 -21 -48 -28 -65 -8 -16 -23 -52 -35 -80 -12 -27 -30 -68 -40 -90
-10 -22 -22 -52 -25 -67 -4 -16 -11 -28 -15 -28 -4 0 -11 -11 -14 -25 -4 -14
-18 -51 -32 -83 -14 -31 -31 -70 -39 -87 -7 -16 -22 -50 -33 -75 -11 -25 -57
-130 -102 -235 -45 -104 -88 -203 -95 -220 -18 -39 -48 -109 -50 -115 -1 -3
-12 -27 -25 -55 -13 -27 -24 -54 -26 -60 -1 -5 -13 -32 -25 -60 -13 -27 -24
-52 -24 -55 -1 -3 -11 -25 -22 -50 -12 -25 -36 -79 -53 -120 -41 -96 -52 -120
-89 -203 -17 -38 -31 -71 -31 -74 0 -3 -16 -38 -35 -79 -19 -40 -35 -76 -35
-78 0 -3 -12 -31 -26 -63 -14 -32 -33 -74 -41 -93 -40 -91 -55 -127 -63 -145
-5 -11 -23 -51 -39 -88 -17 -38 -31 -70 -31 -72 0 -3 -11 -28 -24 -57 -13 -29
-38 -87 -56 -128 -18 -41 -40 -93 -50 -115 -10 -22 -30 -69 -45 -105 -15 -36
-36 -81 -46 -101 -10 -20 -16 -39 -12 -43 3 -3 1 -6 -5 -6 -7 0 -12 -5 -12
-11 0 -5 -11 -35 -25 -65 -14 -30 -25 -57 -25 -60 0 -3 -16 -38 -35 -78 -19
-40 -35 -76 -35 -81 0 -4 -13 -35 -29 -69 -15 -33 -35 -76 -42 -93 -8 -18 -18
-33 -23 -33 -5 0 -6 3 -3 6 3 4 2 14 -3 24 -5 9 -11 28 -14 41 -2 13 -12 53
-21 89 -9 36 -18 70 -20 75 -1 6 -5 17 -8 25 -3 8 -17 62 -32 120 -14 58 -29
112 -32 120 -3 8 -7 22 -9 30 -1 8 -4 22 -7 30 -2 8 -7 29 -12 45 -4 17 -28
104 -52 195 -25 91 -47 174 -49 185 -2 11 -10 43 -19 70 -8 28 -26 95 -41 150
-41 155 -55 209 -58 220 -2 6 -6 24 -11 40 -4 17 -34 129 -67 250 -33 121 -61
227 -63 235 -5 22 -50 192 -110 410 -14 52 -27 102 -29 110 -2 8 -10 35 -17
60 -6 25 -13 52 -14 60 -1 8 -10 40 -19 71 -9 31 -18 65 -20 76 -3 11 -13 51
-25 89 -11 38 -22 80 -25 94 -3 14 -14 56 -25 95 -11 38 -17 73 -15 77 3 4 0
8 -7 8 -7 0 -9 3 -6 6 3 4 2 14 -3 24 -5 9 -12 31 -15 48 -3 17 -17 73 -31
124 -14 51 -30 109 -34 128 -5 19 -14 53 -20 75 -6 22 -12 47 -14 55 -3 8 -12
42 -21 75 -17 59 -34 126 -40 155 -2 8 -4 15 -5 15 -1 0 -3 7 -5 15 -12 48
-46 173 -59 220 -9 30 -18 64 -21 75 -2 11 -9 38 -15 60 -6 22 -13 49 -15 59
-2 10 -9 33 -14 50 -6 17 -13 42 -15 56 -3 14 -15 59 -26 100 -12 41 -24 86
-27 100 -2 14 -7 32 -10 40 -3 8 -7 20 -8 25 -2 6 -8 30 -15 55 -7 25 -14 52
-16 60 -3 16 -23 90 -74 280 -17 63 -32 120 -34 125 -1 6 -5 19 -9 30 -3 11
-8 31 -11 45 -3 14 -17 68 -31 120 -15 52 -28 102 -30 110 -2 8 -10 40 -19 71
-9 31 -18 65 -21 75 -7 38 -34 134 -39 142 -3 5 -7 19 -10 33 -10 50 -15 67
-30 117 -8 29 -15 54 -16 57 0 3 0 6 -1 8 -1 3 -8 30 -12 47 -2 8 -9 33 -15
55 -6 22 -13 51 -16 65 -3 14 -10 41 -16 60 -6 19 -13 42 -15 50 -64 252 -132
400 -245 533 -37 44 -146 151 -179 175 -20 15 -38 30 -41 33 -32 39 -276 159
-353 175 -10 2 -26 5 -35 8 -25 8 -74 17 -99 20 -12 1 -25 5 -29 8 -12 13
-6366 8 -6391 -4z m16867 -4792 c92 -10 145 -17 225 -31 11 -2 50 -10 86 -19
37 -8 78 -17 90 -20 93 -18 207 -74 264 -129 34 -34 45 -52 50 -89 5 -30 3
-54 -6 -69 -7 -13 -12 -25 -10 -27 1 -1 -5 -15 -13 -31 -27 -52 -129 -138
-188 -157 -10 -4 -18 -11 -18 -17 0 -6 -3 -7 -7 -4 -3 4 -11 3 -17 -2 -13 -11
-209 -77 -251 -85 -16 -4 -70 -15 -120 -26 -49 -11 -106 -22 -125 -25 -19 -2
-44 -6 -55 -8 -11 -3 -47 -8 -80 -12 -32 -4 -66 -8 -75 -10 -77 -15 -500 -18
-2375 -20 -1188 -1 -2163 0 -2167 2 -4 2 -3 12 2 21 5 9 18 37 28 62 11 25 34
77 51 117 17 39 31 76 31 81 0 6 4 12 10 14 5 2 11 12 13 23 2 11 14 43 27 70
13 28 25 52 25 55 1 3 8 19 15 35 7 17 14 32 15 35 3 9 35 84 45 105 5 11 25
55 44 97 l35 77 2198 -3 c1209 -2 2223 -6 2253 -10z"/>
</g>
</svg>
